<?xml version="1.0" encoding="UTF-8"?>
<!-- Generator: Adobe Illustrator 16.0.4, SVG Export Plug-In . SVG Version: 6.00 Build 0)  -->
<!DOCTYPE svg PUBLIC "-//W3C//DTD SVG 1.1//EN" "http://www.w3.org/Graphics/SVG/1.1/DTD/svg11.dtd">
<svg version="1.1" id="Layer_1" xmlns="http://www.w3.org/2000/svg" xmlns:xlink="http://www.w3.org/1999/xlink" x="0px" y="0px" width="50.0px" height="50.0px" viewBox="0 0 33.521 33.52" enable-background="new 0 0 33.521 33.52" xml:space="preserve">
<g>
	<path fill="#FCF06B" d="M9.786,1.604L13.305,0c-0.642,2.435-1.458,4.85-1.458,7.394c0,7.886,6.395,14.278,14.28,14.278   c2.546,0,4.96-0.814,7.395-1.458c-3.368,7.39-7.597,13.306-16.814,13.306C7.48,33.519,0,26.039,0,16.812   C0,10.051,4.017,4.232,9.786,1.604L9.786,1.604z"/>
	<path fill="none" d="M9.786,1.604L13.305,0c-0.642,2.435-1.458,4.85-1.458,7.394c0,7.886,6.395,14.278,14.28,14.278   c2.546,0,4.96-0.814,7.395-1.458c-3.368,7.39-7.597,13.306-16.814,13.306C7.48,33.519,0,26.039,0,16.812   C0,10.051,4.017,4.232,9.786,1.604L9.786,1.604z"/>
</g>
</svg>