<?xml version="1.0" encoding="UTF-8"?>
<!-- Generator: Adobe Illustrator 24.0.3, SVG Export Plug-In . SVG Version: 6.00 Build 0)  -->
<svg version="1.1" id="Layer_1" xmlns="http://www.w3.org/2000/svg" xmlns:xlink="http://www.w3.org/1999/xlink" x="0px" y="0px" viewBox="0 0 228.9 46" style="enable-background:new 0 0 228.9 46;" xml:space="preserve">
<style type="text/css">
	.st0{fill:#E1E7Ed;}
	.st1{fill:#C5CDD3;}
	.st2{fill:#A9B2B9;}
</style>
<g>
	<path class="st0" d="M215.3,0c-0.2,0-0.3,0-0.5,0H80.4H1.3c-5.8,14.1,14.9,27.7,46.5,30.3c7.5,0.6,14.8,0.5,21.9-0.1   c8.3,4.4,20.1,7.7,33.9,8.8c15.4,1.3,30.5-0.3,42.7-3.9c8.4,5.3,21.2,9.1,36.6,10.4c17,1.4,33.6-0.7,46.3-5V33v-17c0,0,0.1,0,0.1,0   V0H215.3z M133.6,21c-0.8-0.4-1.6-0.8-2.4-1.3h0C132,20.1,132.8,20.6,133.6,21c1.7,0.8,3.5,1.6,5.5,2.3   C137.1,22.6,135.3,21.8,133.6,21z M142.1,24.2c1.3,0.4,2.6,0.7,3.9,1C144.7,24.9,143.4,24.6,142.1,24.2z M156.3,26.9   c-1.5-0.1-2.9-0.3-4.4-0.5C153.3,26.5,154.8,26.7,156.3,26.9c2.9,0.3,5.8,0.4,8.6,0.4C162,27.3,159.1,27.1,156.3,26.9z M188.8,24.2   c5.3,3.7,13.1,6.5,22.7,7.9C202,30.7,194.1,27.8,188.8,24.2z"/>
	<path class="st1" d="M229.2,0h-15.9c-0.3,0-0.6,0-0.9,0H53.8c0.1,10.7,16.3,20.2,40.4,22.4c6.6,0.6,13.2,0.6,19.6,0.1   c7.1,4.1,17.3,7.1,29.6,8.3c13.6,1.3,27.3,0,38.5-3.1c7.1,4.8,18.2,8.4,31.9,9.7c5.2,0.5,10.5,0.6,15.5,0.4L229.2,0   C229.2,0,229.2,0,229.2,0z"/>
	<path class="st2" d="M229.2,2.8V2.5v-2.6h-7.4c-0.4,0-0.8,0-1,0h-80.5c0,8,8.3,15.1,20.5,16.8c3.4,0.5,6.7,0.5,9.9,0.1   c3.6,3.1,8.8,5.3,15,6.2c6.9,1,13.8,0,19.5-2.3c3.6,3.6,9.2,6.3,16.2,7.3c2.6,0.4,5.3,0.5,7.8,0.3v-8.1V2.8z"/>
</g>
</svg>