<?xml version="1.0" encoding="UTF-8"?>
<!-- Generator: Adobe Illustrator 16.0.4, SVG Export Plug-In . SVG Version: 6.00 Build 0)  -->
<!DOCTYPE svg PUBLIC "-//W3C//DTD SVG 1.1//EN" "http://www.w3.org/Graphics/SVG/1.1/DTD/svg11.dtd">
<svg version="1.1" id="Layer_1" xmlns="http://www.w3.org/2000/svg" xmlns:xlink="http://www.w3.org/1999/xlink" x="0px" y="0px" width="50.0px" height="50.0px" viewBox="0 0 33.521 33.52" enable-background="new 0 0 33.521 33.52" xml:space="preserve">
<g>
	<path fill="#FCF06B" d="M9.786,1.604L13.305,0c-0.643,2.435-1.458,4.85-1.458,7.394c0,7.887,6.395,14.278,14.279,14.278   c2.546,0,4.96-0.814,7.396-1.458c-3.368,7.39-7.598,13.306-16.814,13.306C7.48,33.519,0,26.039,0,16.812   C0,10.051,4.017,4.232,9.786,1.604L9.786,1.604z"/>
	<path fill="#A3A3A3" d="M12.452,4.414c1.18-1.92,3.302-3.2,5.723-3.2c3.219,0,5.909,2.262,6.561,5.287l-3.21-1.771   c0.724-0.265,1.501-0.406,2.308-0.406c3.696,0,6.709,2.988,6.709,6.693s-3.013,6.693-6.709,6.693h-10.27   c-3.696,0-6.708-2.988-6.708-6.693C6.854,7.69,9.281,4.941,12.452,4.414L12.452,4.414z"/>
	<path fill="#FFFFFF" d="M22.358,7.01c0.459-0.167,0.955-0.259,1.474-0.259c2.362,0,4.277,1.909,4.277,4.265   c0,2.354-1.915,4.265-4.277,4.265c-2.056,0-8.297,0-10.269,0c-2.362,0-4.278-1.909-4.278-4.265c0-2.354,1.916-4.265,4.278-4.265   c0.164,0,0.326,0.009,0.484,0.026c0.496-1.808,2.156-3.136,4.127-3.136C20.229,3.644,21.945,5.087,22.358,7.01L22.358,7.01z"/>
	<path fill="none" d="M12.452,4.414c1.18-1.92,3.302-3.2,5.723-3.2c2.382,0,4.467,1.238,5.656,3.108   c3.696,0,6.709,2.988,6.709,6.693s-3.013,6.693-6.709,6.693h-7.576c2.563,2.454,6.042,3.962,9.873,3.962   c2.546,0,4.96-0.814,7.396-1.458c-3.368,7.39-7.598,13.306-16.814,13.306C7.48,33.519,0,26.039,0,16.812   C0,10.05,4.017,4.232,9.786,1.603L13.305,0c-0.393,1.484-0.849,2.964-1.146,4.469L12.452,4.414L12.452,4.414z"/>
</g>
</svg>