<?xml version="1.0" encoding="UTF-8"?>
<!-- Generator: Adobe Illustrator 24.0.3, SVG Export Plug-In . SVG Version: 6.00 Build 0)  -->
<svg version="1.1" id="Layer_1" xmlns="http://www.w3.org/2000/svg" xmlns:xlink="http://www.w3.org/1999/xlink" x="0px" y="0px" viewBox="0 0 500 150" style="enable-background:new 0 0 500 150;" xml:space="preserve">
<style type="text/css">
	.st0{fill:#FBF1BF;}
	.st1{fill:#F9E0A4;}
	.st2{fill:#F3CC9B;}
</style>
<path class="st0" d="M499.1,0L499.1,0L279.3,0c0.1,0.1,0.1,0.2,0.2,0.2H137.6c0,0,0,0,0.1,0H0c101,72.6,244.7,118,404.4,118  c32.6,0,64.5-2,95.6-5.6V90v-2.5V31.1V20.5V0H499.1z"/>
<path class="st1" d="M498.2-0.5L498.2-0.5l-213.1,0c0.1,0.1,0.1,0.2,0.2,0.2H147.8c74.6,57.7,174.9,93.1,285.3,93.1  c22.5,0,44.5-1.5,66-4.3V30.3V19.9V-0.5H498.2z"/>
<path class="st2" d="M498.4,0.1L498.4,0.1l-167.1,0c0.1,0.1,0.1,0.1,0.2,0.2c24.6,31,58.6,50.1,96.2,50.1c26.2,0,50.6-9.5,71.4-25.7  v-8.4V0.1H498.4z"/>
</svg>