<?xml version="1.0" encoding="utf-8"?>
<!-- Generator: Adobe Illustrator 16.0.4, SVG Export Plug-In . SVG Version: 6.00 Build 0)  -->
<!DOCTYPE svg PUBLIC "-//W3C//DTD SVG 1.1//EN" "http://www.w3.org/Graphics/SVG/1.1/DTD/svg11.dtd">
<svg version="1.1" id="Layer_1" xmlns="http://www.w3.org/2000/svg" xmlns:xlink="http://www.w3.org/1999/xlink" x="0px" y="0px"
	 width="50px" height="50px" viewBox="0 0 50 50" enable-background="new 0 0 50 50" xml:space="preserve">
<g>
	<circle fill="#E8B720" cx="22.809" cy="22.977" r="12.706"/>
	<path fill="#E8B720" d="M28.006,8.286h0.209l-5.406-8.14l-5.405,8.14h0.197c1.629-0.582,3.379-0.907,5.208-0.907
		C24.634,7.378,26.38,7.705,28.006,8.286z"/>
	<path fill="#E8B720" d="M16.12,8.898l0.139-0.139L6.68,6.826l1.933,9.579l0.146-0.146C10.3,13.041,12.903,10.434,16.12,8.898z"/>
	<path fill="#E8B720" d="M8.139,17.719V17.55L0,22.955l8.139,5.407v-0.133c-0.593-1.643-0.929-3.406-0.929-5.251
		C7.21,21.129,7.549,19.364,8.139,17.719z"/>
	<path fill="#E8B720" d="M8.692,29.584l-0.079-0.076l-1.932,9.576l9.577-1.932l-0.079-0.08
		C12.892,35.525,10.237,32.871,8.692,29.584z"/>
	<path fill="#E8B720" d="M17.491,37.625h-0.087l5.405,8.141l5.406-8.141h-0.104c-1.655,0.605-3.436,0.951-5.302,0.951
		C20.938,38.576,19.153,38.229,17.491,37.625z"/>
	<path fill="#E8B720" d="M36.902,29.611c-1.549,3.283-4.201,5.938-7.484,7.482l-0.057,0.059l9.576,1.932l-1.932-9.576L36.902,29.611
		z"/>
	<path fill="#E8B720" d="M37.479,28.236v0.125l8.141-5.407l-8.141-5.405v0.179c0.594,1.64,0.928,3.402,0.928,5.248
		C38.406,24.825,38.07,26.59,37.479,28.236z"/>
	<path fill="#E8B720" d="M36.879,16.28l0.127,0.125l1.932-9.579l-9.576,1.933l0.146,0.147C32.732,10.445,35.34,13.053,36.879,16.28z
		"/>
</g>
<g>
	<path fill="#A3A3A3" d="M26.041,7.152C27.572,4.659,30.326,3,33.469,3c4.18,0,7.671,2.934,8.518,6.863l-4.167-2.3
		c0.939-0.343,1.948-0.528,2.997-0.528c4.796,0,8.707,3.88,8.707,8.689c0,4.81-3.911,8.689-8.707,8.689H27.481
		c-4.797,0-8.707-3.879-8.707-8.689C18.773,11.405,21.923,7.836,26.041,7.152L26.041,7.152z"/>
	<path fill="#FFFFFF" d="M38.898,10.525c0.596-0.217,1.24-0.336,1.914-0.336c3.064,0,5.551,2.478,5.551,5.535
		c0,3.057-2.486,5.535-5.551,5.535c-2.669,0-10.771,0-13.331,0c-3.066,0-5.553-2.478-5.553-5.535c0-3.057,2.487-5.535,5.553-5.535
		c0.213,0,0.422,0.012,0.626,0.035c0.645-2.347,2.799-4.069,5.357-4.069C36.135,6.153,38.361,8.026,38.898,10.525L38.898,10.525z"/>
</g>
</svg>
