<?xml version="1.0" encoding="UTF-8"?>
<!-- Generator: Adobe Illustrator 16.0.4, SVG Export Plug-In . SVG Version: 6.00 Build 0)  -->
<!DOCTYPE svg PUBLIC "-//W3C//DTD SVG 1.1//EN" "http://www.w3.org/Graphics/SVG/1.1/DTD/svg11.dtd">
<svg version="1.1" id="Layer_1" xmlns="http://www.w3.org/2000/svg" xmlns:xlink="http://www.w3.org/1999/xlink" x="0px" y="0px" width="50px" height="50px" viewBox="0 0 50 50" enable-background="new 0 0 50 50" xml:space="preserve">
<g>
	<path fill="#8F8F8F" d="M9.918,8.504c1.484-4.254,5.528-7.305,10.288-7.305c1.326,0,2.599,0.238,3.779,0.673   C25.725,0.692,27.828,0,30.091,0c5.231,0,9.606,3.697,10.649,8.623c4.93,1.043,8.623,5.417,8.623,10.655   c0,6.014-4.871,10.891-10.891,10.891H11.519c-6.016,0-10.891-4.877-10.891-10.891C0.627,13.806,4.663,9.277,9.918,8.504   L9.918,8.504z"/>
	<path fill="#CECECE" d="M12.72,11.886c0.106-4.042,3.417-7.284,7.486-7.284c1.594,0,3.064,0.494,4.276,1.335   c1.372-1.553,3.374-2.534,5.616-2.534c4.137,0,7.491,3.352,7.491,7.489c0,0.325-0.022,0.646-0.062,0.959   c0.312-0.039,0.631-0.06,0.959-0.06c4.13,0,7.488,3.352,7.488,7.487c0,4.135-3.354,7.488-7.488,7.488c-4.137,0-22.897,0-26.965,0   c-4.131,0-7.489-3.354-7.489-7.488c0-4.137,3.355-7.487,7.489-7.487C11.928,11.789,12.328,11.821,12.72,11.886L12.72,11.886z"/>
	<path fill="#8F8F8F" d="M10.728,22.659c1.654-2.689,4.625-4.48,8.014-4.48c4.506,0,8.275,3.166,9.188,7.404l-4.493-2.481   c1.012-0.37,2.103-0.57,3.23-0.57c5.177,0,9.394,4.185,9.394,9.372s-4.217,9.373-9.394,9.373H12.282   c-5.177,0-9.393-4.186-9.393-9.373C2.889,27.248,6.287,23.397,10.728,22.659L10.728,22.659z"/>
	<path fill="#CECECE" d="M24.599,26.296c0.643-0.235,1.336-0.36,2.063-0.36c3.307,0,5.99,2.672,5.99,5.972   c0,3.296-2.686,5.972-5.99,5.972c-2.878,0-11.62,0-14.38,0c-3.309,0-5.992-2.676-5.992-5.972c0-3.3,2.683-5.972,5.992-5.972   c0.224,0,0.451,0.01,0.674,0.028c0.696-2.53,3.018-4.39,5.779-4.39C21.616,21.583,24.021,23.602,24.599,26.296L24.599,26.296z"/>
	<path fill="#4897FF" d="M21.108,40.937c0.451,0.85,0.706,1.826,0.706,2.857c0,3.381-2.742,6.123-6.125,6.123   c-3.382,0-6.125-2.742-6.125-6.123c0-1.031,0.255-2.008,0.708-2.857l3.755-7.072c0,0,0.571-1.227,1.662-1.227   c1.147,0,1.682,1.227,1.682,1.227L21.108,40.937L21.108,40.937z"/>
	<polygon fill="#FBF06D" points="21.639,34.629 27.087,16.021 38.6,16.021 36.551,23.538 44.665,23.538 32.262,50 29.674,34.482     "/>
	<polygon fill="#E3303D" points="28.914,18.537 24.817,32.54 31.723,32.411 33.428,42.666 41.213,26.051 33.699,26.051    35.746,18.537  "/>
</g>
</svg>